<?xml version="1.0" encoding="UTF-8"?>
<!-- Generated by Pixelmator Pro 3.8 -->
<svg width="800" height="800" viewBox="0 0 800 800" xmlns="http://www.w3.org/2000/svg">
    <path id="Trazado" fill="none" stroke="#000000" stroke-width="50" d="M 300 400 C 300 384.469971 300 376.703339 302.537354 370.57666 C 305.920349 362.410004 312.409668 355.919983 320.577332 352.536682 C 326.703003 350 334.469971 350 350 350 L 450 350 C 465.530029 350 473.296661 350 479.42334 352.536682 C 487.589996 355.919983 494.080017 362.410004 497.463318 370.57666 C 500 376.703339 500 384.469971 500 400 C 500 415.530029 500 423.296661 497.463318 429.42334 C 494.080017 437.589996 487.589996 444.080017 479.42334 447.463318 C 473.296661 450 465.530029 450 450 450 L 350 450 C 334.469971 450 326.703003 450 320.577332 447.463318 C 312.409668 444.080017 305.920349 437.589996 302.537354 429.42334 C 300 423.296661 300 415.530029 300 400 Z"/>
    <path id="path1" fill="none" stroke="#000000" stroke-width="50" stroke-linecap="round" d="M 683.333313 233.333313 L 683.333313 433.333344 C 683.333313 559.040039 683.333313 621.896667 644.279968 660.946655 C 605.230042 700 542.373352 700 416.666656 700 L 383.333344 700 C 257.625336 700 194.771667 700 155.718994 660.946655 C 116.666664 621.896667 116.666664 559.040039 116.666664 433.333344 L 116.666664 233.333313"/>
    <path id="path2" fill="none" stroke="#000000" stroke-width="50" d="M 66.666664 166.666687 C 66.666664 135.239685 66.666664 119.526306 76.429672 109.763 C 86.193001 100 101.906334 100 133.333328 100 L 666.666687 100 C 698.093323 100 713.806641 100 723.570007 109.763 C 733.333313 119.526306 733.333313 135.239685 733.333313 166.666687 C 733.333313 198.093689 733.333313 213.807007 723.570007 223.570313 C 713.806641 233.333313 698.093323 233.333313 666.666687 233.333313 L 133.333328 233.333313 C 101.906334 233.333313 86.193001 233.333313 76.429672 223.570313 C 66.666664 213.807007 66.666664 198.093689 66.666664 166.666687 Z"/>
</svg>
