<?xml version="1.0" encoding="UTF-8"?>
<!-- Generated by Pixelmator Pro 3.8 -->
<svg width="511" height="511" viewBox="0 0 511 511" xmlns="http://www.w3.org/2000/svg">
    <g id="Agrupar">
        <path id="Rectngulo-redondeado" fill="#000000" fill-rule="evenodd" stroke="none" d="M 236 490.5 C 236 501.269562 244.730453 510 255.5 510 C 266.269562 510 275 501.269562 275 490.5 L 275 19.5 C 275 8.730438 266.269562 0 255.5 0 C 244.730453 0 236 8.730438 236 19.5 Z"/>
        <path id="Rectngulo-redondeado-copia" fill="#000000" fill-rule="evenodd" stroke="none" d="M 241.623596 477.263794 C 234.008362 484.879028 234.008362 497.225739 241.623596 504.840973 C 249.238815 512.456177 261.585541 512.456177 269.200745 504.840973 L 412.688843 361.352905 C 420.304077 353.737671 420.304047 341.39093 412.688843 333.775726 C 405.073608 326.160492 392.726898 326.160492 385.111664 333.775726 Z"/>
        <path id="Rectngulo-redondeado-copia-2" fill="#000000" fill-rule="evenodd" stroke="none" d="M 98.159035 361.200745 C 90.543808 353.585541 90.543808 341.238831 98.159035 333.623596 C 105.774254 326.008362 118.120972 326.008362 125.736198 333.623596 L 269.224274 477.111664 C 276.839508 484.726898 276.839508 497.073608 269.224274 504.688843 C 261.60907 512.304077 249.262344 512.304077 241.64711 504.688843 Z"/>
    </g>
</svg>
