<?xml version="1.0" encoding="UTF-8"?>
<!-- Generated by Pixelmator Pro 3.8 -->
<svg width="800" height="800" viewBox="0 0 800 800" xmlns="http://www.w3.org/2000/svg">
    <path id="Trazado" fill="none" stroke="#000000" stroke-width="50" d="M 100 333.333344 C 100 207.625305 100 144.771667 139.052322 105.718994 C 178.105011 66.666687 240.958664 66.666687 366.666656 66.666687 L 433.333344 66.666687 C 559.039978 66.666687 621.896667 66.666687 660.946655 105.718994 C 700 144.771667 700 207.625305 700 333.333344 L 700 466.666656 C 700 592.373352 700 655.22998 660.946655 694.279968 C 621.896667 733.333313 559.039978 733.333313 433.333344 733.333313 L 366.666656 733.333313 C 240.958664 733.333313 178.105011 733.333313 139.052322 694.279968 C 100 655.22998 100 592.373352 100 466.666656 L 100 333.333344 Z"/>
    <path id="path1" fill="none" stroke="#000000" stroke-width="50" stroke-linecap="round" d="M 266.666656 400 L 533.333313 400"/>
    <path id="path2" fill="none" stroke="#000000" stroke-width="50" stroke-linecap="round" d="M 266.666656 266.666687 L 533.333313 266.666687"/>
    <path id="path3" fill="none" stroke="#000000" stroke-width="50" stroke-linecap="round" d="M 266.666656 533.333374 L 433.333344 533.333374"/>
</svg>
