<?xml version="1.0" encoding="UTF-8"?>
<!-- Generated by Pixelmator Pro 3.8 -->
<svg width="24" height="24" viewBox="0 0 24 24" xmlns="http://www.w3.org/2000/svg">
    <path id="Circle" fill="#000000" fill-rule="evenodd" stroke="none" d="M 16 12 C 16 9.790861 14.209139 8 12 8 C 9.790861 8 8 9.790861 8 12 C 8 14.209139 9.790861 16 12 16 C 14.209139 16 16 14.209139 16 12 Z"/>
    <g id="Agrupar">
        <path id="Rectngulo-redondeado" fill="#000000" fill-rule="evenodd" stroke="none" d="M 11 4 C 11 4.552284 11.447715 5 12 5 C 12.552284 5 13 4.552284 13 4 L 13 1 C 13 0.447716 12.552284 0 12 0 C 11.447715 0 11 0.447716 11 1 Z"/>
        <path id="Rectngulo-redondeado-copia" fill="#000000" fill-rule="evenodd" stroke="none" d="M 11 23 C 11 23.552284 11.447715 24 12 24 C 12.552284 24 13 23.552284 13 23 L 13 20 C 13 19.447716 12.552284 19 12 19 C 11.447715 19 11 19.447716 11 20 Z"/>
        <path id="Rectngulo-redondeado-copia-2" fill="#000000" fill-rule="evenodd" stroke="none" d="M 23 13 C 23.552284 13 24 12.552285 24 12 C 24 11.447716 23.552284 11 23 11 L 20 11 C 19.447716 11 19 11.447716 19 12 C 19 12.552285 19.447716 13 20 13 Z"/>
        <path id="Rectngulo-redondeado-copia-6" fill="#000000" fill-rule="evenodd" stroke="none" d="M 4 13 C 4.552285 13 5 12.552285 5 12 C 5 11.447716 4.552285 11 4 11 L 1 11 C 0.447715 11 0 11.447716 0 12 C 0 12.552285 0.447715 13 1 13 Z"/>
        <path id="Rectngulo-redondeado-copia-3" fill="#000000" fill-rule="evenodd" stroke="none" d="M 6 7.414213 C 6.390524 7.804737 7.023689 7.804737 7.414214 7.414213 C 7.804738 7.023689 7.804738 6.390524 7.414214 6 L 5.292893 3.878679 C 4.902369 3.488155 4.269204 3.488155 3.87868 3.878679 C 3.488155 4.269203 3.488155 4.902369 3.87868 5.292892 Z"/>
        <path id="Rectngulo-redondeado-copia-7" fill="#000000" fill-rule="evenodd" stroke="none" d="M 19 20.414213 C 19.390524 20.804737 20.023689 20.804737 20.414213 20.414213 C 20.804737 20.023689 20.804737 19.390524 20.414213 19 L 18.292892 16.878679 C 17.902369 16.488155 17.269203 16.488155 16.878679 16.878679 C 16.488155 17.269203 16.488155 17.902369 16.878679 18.292892 Z"/>
        <path id="Rectngulo-redondeado-copia-4" fill="#000000" fill-rule="evenodd" stroke="none" d="M 7.414214 18 C 7.804738 17.609476 7.804738 16.976311 7.414214 16.585787 C 7.023689 16.195263 6.390524 16.195263 6 16.585787 L 3.87868 18.707108 C 3.488155 19.097631 3.488155 19.730797 3.87868 20.121321 C 4.269204 20.511845 4.902369 20.511845 5.292893 20.121321 Z"/>
        <path id="Rectngulo-redondeado-copia-5" fill="#000000" fill-rule="evenodd" stroke="none" d="M 20.414213 5 C 20.804737 4.609476 20.804737 3.976311 20.414213 3.585787 C 20.023689 3.195263 19.390524 3.195263 19 3.585787 L 16.878679 5.707108 C 16.488155 6.097631 16.488155 6.730797 16.878679 7.121321 C 17.269203 7.511845 17.902369 7.511845 18.292892 7.121321 Z"/>
    </g>
</svg>
